<?xml version="1.0" encoding="UTF-8"?>
<svg id="Capa_1" xmlns="http://www.w3.org/2000/svg" version="1.1" viewBox="0 0 557.4 222.6">
  <!-- Generator: Adobe Illustrator 30.4.0, SVG Export Plug-In . SVG Version: 2.1.4 Build 226)  -->
  <defs>
    <style>
      .st0 {
        fill: #fff;
      }
    </style>
  </defs>
  <path class="st0" d="M302.5,73.9h-33.1c2.8,0,10.3,1.3,14,10.9,0,0,1.6,3.3,0,9.7.1.3-.1,4.1-17.2,32.8,0,0-16.3,23.7-14.3,39,.2.4,1.2,9.4,10.9,9.5l39.1-.2s-21.5-.4-26.3-23c0,.1-2.7-8.1,4.6-20.1,0,0,18-29.7,18-29.7.4-.6.9-1.6,1.6-1.9.9-.4,2.1.2,3.4,1.8l.8,1.2c.4.6.7,1.2.9,1.8l.6,1.8c.5,2.8.2,3.9,0,5.6-.4,1.9-1.3,4.3-3.7,6.5,0,0-1.8,1.9-5.4,2.8,0,0-5.5.8-5.2,3.9,0,0-.2,4.1,15.3,6.7,0,0,7,1.5,12.2,1,0,0,2.7-.3,2.3-3.5,0,0-18.5-56.6-18.5-56.6Z"/>
  <path class="st0" d="M268.4,73.9h1.1c-.7,0-1.1,0-1.1,0Z"/>
  <path class="st0" d="M423.1,74h-32.6c0,0,10.2,1.3,9.2,12.4-.2,1.7-.6,3.4-1.2,4.9-2.5,6.4-5.6,29.3-9.2,38.4-.5,1.3-2.2,1.2-2.6-.2l-11-39.3c-.7-2.6-.9-5.5-.2-8.1.9-3.5,3.1-7.5,9-8.3,0,0-34.8,0-34.8,0,0,0,6.5.2,8.5,7.9.6,2.3.6,4.8.2,7.1l-7.7,40.6c-.3,1.5-2.2,1.7-2.6.2l-12.9-39.5c-.8-2.6-1.1-5.3-.5-8,.8-3.5,3.1-7.5,9.5-8.4h-30.4c-2.1-.1-3.6,2.2-2.8,4.4l30.4,92.9c1.9,5.8,9.2,6.1,11.5.4l14.2-36.5c.5-1.3,2.9-1.3,3.4,0l11.5,35.3c2.1,5.9,9.8,6.6,12.1.8l29.2-87.1v-10.3Z"/>
  <path class="st0" d="M426.4,74h.4c-.2,0-.4,0-.4,0Z"/>
  <path class="st0" d="M507.9,155.8c-2.9-9.3-7.4-15.8-17.4-17.1,0,0,3.5,2.3,4.3,6.1.7,3.4-.3,8.7-5.6,11.1-1.9.9-4.3.8-6.4.8h-21.1s-9.8.5-9.8-6.7,0-3.5,0-5.3c0-3.1.2.3,0-2.3,0-1.8,0-7.2,0-8.9l28.4-.3v-15.5h-28.4c0,.1,0-13.7,0-13.7.2-5.2-1-11.5,2.1-11.6,3.4-.1,11.9,0,19.2,0,1.6.1,20.4-1.7,31,14.2l.2-32.8h-77.4c1.1.3,4.3,1.6,4.5,12.6v78.3s0,9.9-10,10.7c0,.2,89.5.1,89.5.1,0,0,0-10.9-2.9-19.8Z"/>
  <polygon class="st0" points="504.1 53.8 474 67.3 504.1 67.2 504.1 53.8"/>
  <path class="st0" d="M242.1,159.7c0-.2,0-.5,0-.7.3-2.9,2.2-29.4-18.2-30.4,0,0-.5,0-1.4,0,11.1-3.3,19.5-13.9,19.5-26.6,0-.4,0-.9,0-1.4,0-1.3-.2-2.6-.4-3.8-2.1-13.4-13.6-23.2-26.5-23.2h-24.3v.2s-39.1,0-39.1,0c0,0,9.8,1.2,13.5,9.8.4.9.6,1.9.6,2.9.3,11.6.2,88.8.2,88.8h36.1s-10.5-2.3-10.6-10.6c0,0,0-16.8,0-35.9h2.8c0,.1,4.7.3,4.7.3,6.8,1.7,17.9,10,18,46.4.4.3,27.8,0,36.8,0-4.1-.4-11.4-2.9-11.6-15.9ZM191.4,90.4h9.7s11.1-.6,11.7,11.3c.2,0-.4,11.2-11.7,11.7.1,0-7-.3-9.7-.4,0-8.2,0-16.1,0-22.6Z"/>
  <path class="st0" d="M256.5,175.5s-1,0-2.8,0c1.6.2,2.8,0,2.8,0Z"/>
  <path class="st0" d="M144.9,74.4c0-.3-.3-.5-.5-.5h-56.1c0,0,8.4.6,11.4,7,1.6,3.3,2.4,7,1.5,10.7-.5,2.2-1.4,5-2.9,8.2,0,0-26.9,61.5-32.8,69.7-.4.5-1,1-1.4,1.4-.1.1-.2.2-.4.4h0c-2.2,2.3-3.9,3.1-5.5,3.4-.9.3-1.8.5-2.8.6h48.8c0,.1-7.2-1.9-10.4-11.6-2.1-6.5.8-13.4,4.8-17.5.8-.8,1.7-1.6,2.8-2.3,2.6-1.7,5.6-2.5,8.6-2.5l2.9-.2s0,0,0,0h3.6c1.6,0,3.2.5,4.7,1,.1,0,.3,0,.4.1,1.5.6,3.7,1.6,5.8,3.6,4.3,4,6.4,9.9,5.5,15.6-.3,2-1,4.2-2.2,6.4,0,0-1.6,4.7-8.1,7.5,0,0,32.1,0,32.1,0h5.1c-.6-2.9-1.5-9.3-1.7-10.6l-13.3-90.3ZM127.5,125.6l-18.2-.4c-.8,0-1.7-1-1.3-1.8l13.5-29.4c.5-1,2.4-.7,2.6.4l4.4,29.8c.1.7-.4,1.4-1,1.4Z"/>
</svg>